<svg xmlns="http://www.w3.org/2000/svg" viewBox="0 0 2105.5 269.9" class="_--_-___fe">
    <path
        d="m421.3 64.2-18.9-.4v143.5h18.8c4.7.1 9.3-1.7 12.5-5.1 3.3-3.3 5.2-7.9 5.1-12.6V82c.1-4.7-1.8-9.3-5.1-12.7-3.2-3.3-7.7-5.2-12.4-5.1m481.4-.1-18.9-.4v143.5h18.8c4.7.1 9.3-1.7 12.5-5.1 3.3-3.3 5.2-7.9 5.1-12.6V81.8c.1-4.7-1.8-9.3-5.1-12.7-3.3-3.3-7.7-5.1-12.4-5m-209.5-3.7c-4.7-.1-9.3 1.8-12.7 5.1v.1c-3.4 3.3-5.2 7.8-5.1 12.6V191c-.1 4.7 1.7 9.3 5.1 12.6 3.3 3.4 7.9 5.2 12.7 5.1h.1c9.8 0 17.7-8 17.6-17.7V78.1c0-9.8-7.9-17.7-17.7-17.7M119.7 160.5h23l-11.5-81.2z">
    </path>
    <path
        d="M997 0H28.7C12.8 0 0 12.8 0 28.7v212.5c0 15.8 12.8 28.7 28.7 28.7H997c15.9 0 28.7-12.8 28.7-28.7V28.7c0-15.9-12.9-28.7-28.7-28.7M154.6 237.9l-7.3-47.3h-32.4l-7.5 47.3H75l35-205.8h42.7l34.5 205.8zm177.5.1H299l-42.7-132v132h-31.1V32H260l41 138.4V31.9h31.1zM469 188.7c.2 13.1-5 25.7-14.3 34.8-9 9.4-21.5 14.6-34.5 14.5h-48.8V31.9h48.8c13-.2 25.6 5 34.6 14.5 9.3 9.1 14.4 21.7 14.2 34.7zM578.2 238l-18.8-77.5h-20.5v77.4h-31.1l-.1-205.8h49c17.3 0 30 4.8 38.1 14.3 7.6 9.9 11.4 22.3 10.7 34.8v29.9c.2 14.2-5.9 27.7-16.6 36.9l22.8 89.9h-33.5zm165.2-46.8v.1c0 27.2-22.1 49.2-49.3 49.2-13.1.2-25.8-5-34.8-14.5-9.3-9.2-14.5-21.8-14.3-34.8V78.8c-.2-13.1 5-25.8 14.5-34.9 19.2-19.2 50.4-19.2 69.6 0 9.4 9.1 14.6 21.7 14.4 34.8v112.5zm70.1 46.7h-31.1V32.1h31.1zm136.8-49.2c.2 13.1-5 25.7-14.3 34.8-9 9.4-21.5 14.6-34.5 14.5h-48.8V31.9h48.8c13-.2 25.6 5 34.6 14.5 9.3 9.1 14.4 21.7 14.2 34.7z">
    </path>
    <path
        d="m557.6 63.9-18.7-.1v65.9h18.8c4.7.1 9.3-1.8 12.6-5.1 3.4-3.3 5.2-7.9 5.1-12.7V81.7c-.1-11.9-6-17.8-17.8-17.8m1319.8-2.4h33V236h31V61.5h32.9V30.2l-96.9.2zM2071 30.4l-22.8 73.9-22.9-74.2h-34.2l41.6 119.7V236h31.1v-86.2L2105.5 30zm-784.4 158.9c0 9.8-7.9 17.7-17.6 17.7h-.1c-4.7.1-9.3-1.8-12.7-5.1s-5.2-7.8-5.1-12.6V30.2h-30.4v159.4c-.1 26.9 21.7 48.9 48.6 48.9h.5c13.1.2 25.6-4.9 34.8-14.1 9.5-9.1 14.7-21.7 14.5-34.8V30.2l-32.5.2zm539.5-159.1h31.1v206h-31.1zm-301.2 87.7h-37.5V30.2h-31V236h31v-87.4h37.5v87.1h31V30.2l-31 .2zm-185.8-56.4h33V236h31.1V61.5h32.8V30.2l-96.9.2zm-212.5-31.3-35.1 206h32.4l7.5-47.3h32.3l7.3 47.3h32.6l-34.5-205.8zm9.7 128.3 11.6-81.1 11.4 81.1zM1662.8 42c-19.2-19.2-50.4-19.2-69.6 0h.1c-9.4 9.1-14.7 21.8-14.5 34.9v112.4c0 27.2 22 49.2 49.2 49.2s49.2-22 49.2-49.2V76.8c.2-13.1-5-25.7-14.4-34.8m-17.7 146.9v.4c-.2 9.8-8.3 17.5-18.1 17.3-4.7.1-9.3-1.8-12.7-5.1l.4-.1c-3.4-3.3-5.2-7.8-5.1-12.6V76.1c-.1-4.7 1.7-9.3 5.1-12.6 3.3-3.4 7.9-5.2 12.7-5.1h.1c9.8 0 17.7 8 17.6 17.7zm152.6-79.5V79.5c.8-12.5-3-24.9-10.7-34.8-8.1-9.5-20.8-14.3-38.1-14.3l-48.9-.2V236h31.1v-77.5h20.5l18.8 77.5h33.6l-22.8-89.7c10.6-9.2 16.7-22.7 16.5-36.9m-30.3.6c.1 4.7-1.8 9.3-5.1 12.7s-7.8 5.2-12.6 5.1H1731V62h18.7c11.8 0 17.7 6 17.7 17.9z">
    </path>
</svg>